Simulation
nRows=20
nColumns=15
endheader
time  TH_x TH_y TH_z SC_y  SC_z  SC_x  AC_y  AC_z  AC_x  GH_y  GH_z  GH_yy  EL_x  PS_y
0.0  0.000000  0.000000  0.000000  -28.44914198775184  -1.6635501327671132  14.10837010145044  55.71460870140803  -7.785940465637985  -15.595678276882975  -166.42272078529908  4.265709321568557  -169.59836535874106  25.63107003773728  0.000000
0.015  0.000000  0.000000  0.000000  -28.48677073361298  -1.567380607027414  13.988759318662575  55.707660882396866  -7.414253625847577  -15.49528355828571  -166.3910722569586  3.9943435701623438  -169.725740055723  25.59272650683624  0.000000
0.03  0.000000  0.000000  0.000000  -28.418502996437812  -1.4748947685858642  13.923730478292804  55.73136952198709  -7.1392431289114935  -15.449086737090864  -166.36831877120176  3.6738161484683105  -169.8391589752543  25.577357332196225  0.000000
0.045  0.000000  0.000000  0.000000  -28.4117428523021  -1.3803851729070102  13.914161448983004  55.767481813644956  -6.962134786434097  -15.409363304130869  -166.3690459616948  3.281875921531192  -169.94894111187605  25.543772082655796  0.000000
0.06  0.000000  0.000000  0.000000  -28.420974244682064  -1.293780831868515  13.948249485929917  55.780067330831066  -6.848011035556599  -15.385617272623875  -166.52916403184153  2.8533562549348956  -169.95760162205488  25.505131056610896  0.000000
0.075  0.000000  0.000000  0.000000  -28.443672198932877  -1.212254390103734  14.009610044556633  55.8003388652602  -6.789330422578562  -15.370615744260743  -167.2764050995576  2.3818308235968395  -169.4243619880368  25.454163605057985  0.000000
0.09  0.000000  0.000000  0.000000  -28.477575379758846  -1.132230464048808  14.093553546651847  55.81411238565868  -6.773162602253869  -15.3596922220426  -169.02046260003456  1.8794312675361566  -167.94265103846664  25.402557856517763  0.000000
0.105  0.000000  0.000000  0.000000  -28.51962094431491  -1.0509029430373638  14.193065586204547  55.82527445166577  -6.793934581005023  -15.347921914569012  -173.04481534747796  1.3509825178721746  -164.22634461937744  25.346504101534162  0.000000
0.12  0.000000  0.000000  0.000000  -28.571437299730544  -0.9665894296087241  14.304028780433983  55.83646920897983  -6.845729222022026  -15.333420726795483  175.9997262970068  0.8144992237252835  -153.62217990210678  25.288984415815342  0.000000
0.135  0.000000  0.000000  0.000000  -28.633407034307545  -0.8769255456848368  14.42387029963719  55.84633130078424  -6.92410144583895  -15.311565583966006  131.27244814204266  0.39482900113739167  -109.28574379875796  25.229432311898204  0.000000
0.15  0.000000  0.000000  0.000000  -28.70541412482196  -0.7794319031939263  14.550335080843755  55.85780553154078  -7.025761894138874  -15.280635353856775  60.32284640733726  0.6356098701849323  -38.764357469531745  25.166853146966318  0.000000
0.16499999999999998  0.000000  0.000000  0.000000  -28.78877722084854  -0.6706271683391299  14.684302250211873  55.86898590633142  -7.148521296325187  -15.237645139827057  41.75753074643176  1.2229867582410578  -20.660133009679004  25.10192542405288  0.000000
0.18  0.000000  0.000000  0.000000  -28.88138423519306  -0.5501233723145965  14.826733821422238  55.88098302127153  -7.28953915354438  -15.185183683947868  35.14212965578986  1.8724920268776706  -14.537185158565647  25.034117262687978  0.000000
0.195  0.000000  0.000000  0.000000  -28.980233543146397  -0.4266191739792922  14.980981688105333  55.895436695035244  -7.443472149163461  -15.13159009101238  31.592614387074097  2.548420945306832  -11.508196736759809  24.96225859697825  0.000000
0.21  0.000000  0.000000  0.000000  -29.08329305340569  -0.3100184253484593  15.133999866444467  55.916695128000484  -7.590739903513639  -15.078452668944008  29.259247518080556  3.243666267391401  -9.720910534298282  24.88467267887609  0.000000
0.22499999999999998  0.000000  0.000000  0.000000  -29.19261503033431  -0.20369409916380388  15.284709206274277  55.946317051863375  -7.723027391746212  -15.028284673538872  27.56027054747836  3.956132217115665  -8.585361507841014  24.801834705057523  0.000000
0.24  0.000000  0.000000  0.000000  -29.305089394714646  -0.10898092563201787  15.435228218650442  55.98482789112102  -7.835218037818969  -14.985881518401248  26.27414304524221  4.68313603398776  -7.874034237708223  24.715199674139086  0.000000
0.255  0.000000  0.000000  0.000000  -29.41672349943922  -0.027220284035417402  15.588598638687033  56.031011147781776  -7.923644307242283  -14.95434187480348  25.25808224784957  5.420967405228459  -7.440296819371283  24.62509295037167  0.000000
0.27  0.000000  0.000000  0.000000  -29.525162865443342  0.042752433515100684  15.735919651778831  56.08610128329884  -7.977859058954288  -14.929744443344097  24.445451961387977  6.168108657245632  -7.215611615178536  24.53297089968257  0.000000
0.285  0.000000  0.000000  0.000000  -29.632834638547333  0.10345905792138024  15.874771097999494  56.15140782560141  -7.99619103997139  -14.907921022320878  23.791407206785916  6.925658132429639  -7.151726423410989  24.43905413290036  0.000000
